<svg xmlns="http://www.w3.org/2000/svg" xmlns:xlink="http://www.w3.org/1999/xlink" version="1.1" x="0px" y="0px" viewBox="0 0 25 31.25" enable-background="new 0 0 25 25" xml:space="preserve"><g><path d="M4.864,11.978c-0.552,0-1,0.448-1,1V23c0,0.552,0.448,1,1,1h15.272c0.552,0,1-0.448,1-1V12.978c0-0.552-0.448-1-1-1   s-1,0.448-1,1V22H5.864v-9.022C5.864,12.425,5.416,11.978,4.864,11.978z"/><path d="M2,11.741c0.226,0,0.453-0.076,0.639-0.231l9.86-8.208l9.86,8.208c0.424,0.353,1.055,0.296,1.408-0.129   c0.354-0.424,0.296-1.055-0.129-1.408l-2.503-2.084V4.386c0-0.552-0.448-1-1-1s-1,0.448-1,1v1.837L13.14,1.231   c-0.37-0.309-0.909-0.309-1.279,0L1.36,9.972c-0.425,0.354-0.482,0.984-0.129,1.408C1.429,11.618,1.714,11.741,2,11.741z"/></g><text x="0" y="40" fill="#000000" font-size="5px" font-weight="bold" font-family="'Helvetica Neue', Helvetica, Arial-Unicode, Arial, Sans-serif">Created by Ajeng Tri Rahma</text><text x="0" y="45" fill="#000000" font-size="5px" font-weight="bold" font-family="'Helvetica Neue', Helvetica, Arial-Unicode, Arial, Sans-serif">from the Noun Project</text></svg>