<svg xmlns="http://www.w3.org/2000/svg" xmlns:xlink="http://www.w3.org/1999/xlink" version="1.1" x="0px" y="0px" viewBox="0 0 36 45" style="enable-background:new 0 0 36 36;" xml:space="preserve"><style type="text/css">
	.st0{opacity:0.34;}
	.st1{opacity:0.25;}
	.st2{opacity:0.3;}
	.st3{fill:none;stroke:#000000;stroke-width:4;stroke-linecap:round;stroke-miterlimit:10;}
	.st4{fill:none;stroke:#000000;stroke-width:3;stroke-linecap:round;stroke-miterlimit:10;}
	.st5{opacity:0.19;}
	.st6{opacity:0.32;}
	.st7{fill:none;stroke:#000000;stroke-width:3;stroke-linecap:round;stroke-linejoin:round;stroke-miterlimit:10;}
	.st8{display:none;opacity:0.4;}
	.st9{display:inline;}
	.st10{display:none;opacity:0.4;fill:none;stroke:#000000;stroke-width:3;stroke-miterlimit:10;}
</style><path d="M19,19c-0.5,0-1-0.2-1.4-0.6c-0.8-0.8-0.8-2,0-2.8l11-11c0.8-0.8,2-0.8,2.8,0c0.8,0.8,0.8,2,0,2.8l-11,11  C20,18.8,19.5,19,19,19z M29,14.1V27c0,1.1-0.9,2-2,2H9c-1.1,0-2-0.9-2-2V9c0-1.1,0.9-2,2-2h12.9l3-3H9C6.3,4,4,6.3,4,9v18  c0,2.8,2.3,5,5,5h18c2.8,0,5-2.3,5-5V11.1L29,14.1z M15,18l-1,3c0,0.6,0.4,1,1,1l3-1L15,18z"/><text x="0" y="51" fill="#000000" font-size="5px" font-weight="bold" font-family="'Helvetica Neue', Helvetica, Arial-Unicode, Arial, Sans-serif">Created by Kenneth Chua</text><text x="0" y="56" fill="#000000" font-size="5px" font-weight="bold" font-family="'Helvetica Neue', Helvetica, Arial-Unicode, Arial, Sans-serif">from the Noun Project</text></svg>