<svg xmlns="http://www.w3.org/2000/svg" xmlns:xlink="http://www.w3.org/1999/xlink" version="1.1" x="0px" y="0px" viewBox="0 0 36 45" style="enable-background:new 0 0 36 36;" xml:space="preserve"><style type="text/css">
	.st0{opacity:0.34;}
	.st1{opacity:0.25;}
	.st2{opacity:0.3;}
	.st3{fill:none;stroke:#000000;stroke-width:4;stroke-linecap:round;stroke-miterlimit:10;}
	.st4{fill:none;stroke:#000000;stroke-width:3;stroke-linecap:round;stroke-miterlimit:10;}
	.st5{opacity:0.19;}
	.st6{opacity:0.32;}
	.st7{fill:none;stroke:#000000;stroke-width:3;stroke-linecap:round;stroke-linejoin:round;stroke-miterlimit:10;}
	.st8{display:none;opacity:0.4;}
	.st9{display:inline;}
	.st10{display:none;opacity:0.4;fill:none;stroke:#000000;stroke-width:3;stroke-miterlimit:10;}
</style><path d="M32.3,27.2C32.1,27.7,31.6,28,31,28h-7.3c-0.8,2.3-3,4-5.7,4s-4.8-1.7-5.7-4H5c-0.6,0-1.1-0.3-1.3-0.8  c-0.3-0.5-0.2-1.1,0.1-1.6L7,21.1V15C7,8.9,11.9,4,18,4c2.5,0,4.8,0.8,6.6,2.2l-2.1,2.1C21.2,7.5,19.7,7,18,7c-4.4,0-8,3.6-8,8v7  v0.1L7.9,25H15v1c0,1.7,1.3,3,3,3c1.7,0,3-1.3,3-3v-1h7.1L26,22.1V22v-7c0-1.7-0.5-3.2-1.4-4.5l2.1-2.1c1.4,1.8,2.2,4.1,2.2,6.6v6.1  l3.2,4.5C32.5,26.1,32.6,26.7,32.3,27.2z"/><text x="0" y="51" fill="#000000" font-size="5px" font-weight="bold" font-family="'Helvetica Neue', Helvetica, Arial-Unicode, Arial, Sans-serif">Created by Kenneth Chua</text><text x="0" y="56" fill="#000000" font-size="5px" font-weight="bold" font-family="'Helvetica Neue', Helvetica, Arial-Unicode, Arial, Sans-serif">from the Noun Project</text></svg>