<svg xmlns="http://www.w3.org/2000/svg" xmlns:xlink="http://www.w3.org/1999/xlink" version="1.1" x="0px" y="0px" viewBox="0 0 36 45" style="enable-background:new 0 0 36 36;" xml:space="preserve"><style type="text/css">
	.st0{opacity:0.34;}
	.st1{opacity:0.25;}
	.st2{opacity:0.3;}
	.st3{fill:none;stroke:#000000;stroke-width:4;stroke-linecap:round;stroke-miterlimit:10;}
	.st4{fill:none;stroke:#000000;stroke-width:3;stroke-linecap:round;stroke-miterlimit:10;}
	.st5{opacity:0.19;}
	.st6{opacity:0.32;}
	.st7{fill:none;stroke:#000000;stroke-width:3;stroke-linecap:round;stroke-linejoin:round;stroke-miterlimit:10;}
	.st8{display:none;opacity:0.4;}
	.st9{display:inline;}
	.st10{display:none;opacity:0.4;fill:none;stroke:#000000;stroke-width:3;stroke-miterlimit:10;}
</style><g><circle cx="18" cy="16" r="3"/><path d="M8.4,23.3C7.5,21.7,7,19.9,7,18c0-6.1,4.9-11,11-11s11,4.9,11,11c0,1.9-0.5,3.7-1.4,5.3l1.7,2.9C31,23.9,32,21.1,32,18   c0-7.7-6.3-14-14-14S4,10.3,4,18c0,3.1,1,5.9,2.7,8.3L8.4,23.3z"/><path d="M18,32c2.7,0,5.2-0.8,7.3-2.1c0.1,0,0.1-0.1,0.2-0.1c0.4-0.3,0.8-0.6,1.2-0.9c-0.1-0.3-0.1-0.5-0.2-0.7   c-0.1-0.2-0.1-0.4-0.2-0.6c0,0,0-0.1-0.1-0.1c-0.1-0.2-0.2-0.4-0.3-0.6c0,0,0,0,0,0c-0.1-0.2-0.2-0.4-0.3-0.6c0,0,0,0,0-0.1   c0,0,0-0.1-0.1-0.1c0,0,0,0,0,0c-1.6-2.4-4.4-4-7.5-4s-5.9,1.6-7.5,4c0,0,0,0,0,0c0,0-0.1,0.1-0.1,0.1c0,0,0,0,0,0.1   c-0.1,0.2-0.2,0.4-0.3,0.6c0,0,0,0,0,0c-0.1,0.2-0.2,0.4-0.3,0.6c0,0,0,0.1-0.1,0.1c-0.1,0.2-0.1,0.4-0.2,0.6   c-0.1,0.2-0.2,0.5-0.2,0.7c0.4,0.3,0.8,0.6,1.2,0.9c0.1,0,0.1,0.1,0.2,0.1C12.8,31.2,15.3,32,18,32z M18,25c2.1,0,4,1.1,5,2.8   c-1.5,0.8-3.2,1.2-5,1.2s-3.5-0.4-5-1.2C14,26.1,15.9,25,18,25z"/></g><text x="0" y="51" fill="#000000" font-size="5px" font-weight="bold" font-family="'Helvetica Neue', Helvetica, Arial-Unicode, Arial, Sans-serif">Created by Kenneth Chua</text><text x="0" y="56" fill="#000000" font-size="5px" font-weight="bold" font-family="'Helvetica Neue', Helvetica, Arial-Unicode, Arial, Sans-serif">from the Noun Project</text></svg>