<svg xmlns="http://www.w3.org/2000/svg" xmlns:xlink="http://www.w3.org/1999/xlink" version="1.1" x="0px" y="0px" viewBox="0 0 36 45" style="enable-background:new 0 0 36 36;" xml:space="preserve"><style type="text/css">
	.st0{opacity:0.34;}
	.st1{opacity:0.25;}
	.st2{opacity:0.3;}
	.st3{fill:none;stroke:#000000;stroke-width:4;stroke-linecap:round;stroke-miterlimit:10;}
	.st4{fill:none;stroke:#000000;stroke-width:3;stroke-linecap:round;stroke-miterlimit:10;}
	.st5{opacity:0.19;}
	.st6{opacity:0.32;}
	.st7{fill:none;stroke:#000000;stroke-width:3;stroke-linecap:round;stroke-linejoin:round;stroke-miterlimit:10;}
	.st8{display:none;opacity:0.4;}
	.st9{display:inline;}
	.st10{display:none;opacity:0.4;fill:none;stroke:#000000;stroke-width:3;stroke-miterlimit:10;}
</style><path d="M28.6,5.1C28.9,5.7,29,6.3,29,7v25.5c0,0.6-0.3,1.1-0.9,1.4C27.9,34,27.7,34,27.5,34c-0.4,0-0.7-0.1-1-0.4L18,26.5l-8.5,7.1  c-0.4,0.4-1.1,0.5-1.6,0.2C7.3,33.6,7,33.1,7,32.5L7,7c0-2.8,2.3-5,5-5h12c1,0,1.9,0.3,2.7,0.8L24,5c0,0,0,0,0,0H12  c-1.1,0-2,0.9-2,2l0,22.2l7-5.8c0.6-0.5,1.4-0.5,2,0l7,5.8V7.3L28.6,5.1z"/><text x="0" y="51" fill="#000000" font-size="5px" font-weight="bold" font-family="'Helvetica Neue', Helvetica, Arial-Unicode, Arial, Sans-serif">Created by Kenneth Chua</text><text x="0" y="56" fill="#000000" font-size="5px" font-weight="bold" font-family="'Helvetica Neue', Helvetica, Arial-Unicode, Arial, Sans-serif">from the Noun Project</text></svg>